<?xml version="1.0" encoding="utf-8"?><svg xmlns="http://www.w3.org/2000/svg" xmlns:xlink="http://www.w3.org/1999/xlink"><symbol style="position:absolute" viewBox="0 0 0 0" id="blobs"><defs><clipPath id="ablob-0"><circle cx="50%" cy="50%" r="50%"/></clipPath><clipPath id="ablob-1"><ellipse cx="50%" cy="50%" rx="40%" ry="60%"/></clipPath><clipPath id="ablob-2"><path d="M50,0 C80,0 100,50 50,100 C0,50 20,0 50,0 Z"/></clipPath><clipPath id="ablob-3"><path d="M0,0 C50,10 70,70 0,100 Z"/></clipPath><!--Додайте більше blob-форм за потреби--></defs></symbol><symbol viewBox="0 0 28 28" id="camera" xmlns="http://www.w3.org/2000/svg"><mask id="bmask0_24_59" style="mask-type:alpha" maskUnits="userSpaceOnUse" x="0" y="0" width="28" height="28"><rect width="27.5114" height="28"/></mask><g mask="url(#bmask0_24_59)"><path d="M13.0683 10.5002H22.2388C21.7229 9.1585 20.9348 8.00641 19.8745 7.04391C18.8142 6.08141 17.5962 5.40572 16.2206 5.01683L13.0683 10.5002ZM10.4318 12.8335L15.017 4.7835C14.8068 4.74461 14.5967 4.71544 14.3865 4.696C14.1764 4.67655 13.9662 4.66683 13.7561 4.66683C12.4951 4.66683 11.3202 4.90989 10.2312 5.396C9.14217 5.88211 8.17736 6.5335 7.33673 7.35016L10.4318 12.8335ZM4.87216 16.3335H11.1196L6.53431 8.2835C5.92295 9.08072 5.44532 9.96058 5.10143 10.9231C4.75753 11.8856 4.58559 12.9113 4.58559 14.0002C4.58559 14.4085 4.60947 14.8022 4.65723 15.1814C4.70499 15.5606 4.77664 15.9446 4.87216 16.3335ZM11.2915 22.9835L14.3865 17.5002H5.27337C5.78921 18.8418 6.5773 19.9939 7.63764 20.9564C8.69797 21.9189 9.91593 22.5946 11.2915 22.9835ZM13.7561 23.3335C15.017 23.3335 16.192 23.0904 17.281 22.6043C18.37 22.1182 19.3348 21.4668 20.1754 20.6502L17.0804 15.1668L12.4951 23.2168C12.7053 23.2557 12.9107 23.2849 13.1113 23.3043C13.3119 23.3238 13.5268 23.3335 13.7561 23.3335ZM20.9778 19.7168C21.5892 18.9196 22.0668 18.0397 22.4107 17.0772C22.7546 16.1147 22.9265 15.0891 22.9265 14.0002C22.9265 13.5918 22.9027 13.1981 22.8549 12.8189C22.8071 12.4397 22.7355 12.0557 22.64 11.6668H16.3926L20.9778 19.7168ZM13.7561 25.6668C12.1894 25.6668 10.7088 25.3606 9.31411 24.7481C7.91944 24.1356 6.70148 23.2995 5.66025 22.2397C4.61902 21.18 3.7975 19.9404 3.19569 18.521C2.59387 17.1016 2.29297 15.5946 2.29297 14.0002C2.29297 12.3863 2.59387 10.8745 3.19569 9.46475C3.7975 8.05502 4.61902 6.8203 5.66025 5.76058C6.70148 4.70086 7.91944 3.86475 9.31411 3.25225C10.7088 2.63975 12.1894 2.3335 13.7561 2.3335C15.3418 2.3335 16.8272 2.63975 18.2123 3.25225C19.5975 3.86475 20.8106 4.70086 21.8519 5.76058C22.8931 6.8203 23.7146 8.05502 24.3164 9.46475C24.9182 10.8745 25.2192 12.3863 25.2192 14.0002C25.2192 15.5946 24.9182 17.1016 24.3164 18.521C23.7146 19.9404 22.8931 21.18 21.8519 22.2397C20.8106 23.2995 19.5975 24.1356 18.2123 24.7481C16.8272 25.3606 15.3418 25.6668 13.7561 25.6668Z" fill-opacity="0.85"/></g></symbol><symbol viewBox="0 0 13 22" id="facebook" xmlns="http://www.w3.org/2000/svg"><path d="M12 1H9C7.67392 1 6.40215 1.52678 5.46447 2.46447C4.52678 3.40215 4 4.67392 4 6V9H1V13H4V21H8V13H11L12 9H8V6C8 5.73478 8.10536 5.48043 8.29289 5.29289C8.48043 5.10536 8.73478 5 9 5H12V1Z" stroke-linecap="round" stroke-linejoin="round"/></symbol><symbol viewBox="0 0 24 24" id="inst" xmlns="http://www.w3.org/2000/svg"><path d="M17 2H7C4.23858 2 2 4.23858 2 7V17C2 19.7614 4.23858 22 7 22H17C19.7614 22 22 19.7614 22 17V7C22 4.23858 19.7614 2 17 2Z" stroke-linecap="round" stroke-linejoin="round"/><path d="M16.0036 11.3703C16.127 12.2025 15.9849 13.0525 15.5974 13.7993C15.2099 14.5461 14.5968 15.1517 13.8452 15.53C13.0937 15.9082 12.2421 16.0399 11.4114 15.9062C10.5807 15.7726 9.81337 15.3804 9.21845 14.7855C8.62353 14.1905 8.23135 13.4232 8.09768 12.5925C7.96402 11.7619 8.09568 10.9102 8.47394 10.1587C8.8522 9.40716 9.4578 8.79404 10.2046 8.40654C10.9514 8.01904 11.8014 7.87689 12.6336 8.0003C13.4825 8.12619 14.2685 8.52176 14.8753 9.12861C15.4822 9.73545 15.8777 10.5214 16.0036 11.3703Z" stroke-linecap="round" stroke-linejoin="round"/><path d="M17.5 6.5H17.51" stroke-linecap="round" stroke-linejoin="round"/></symbol><symbol style="position:absolute;width:0;height:0;overflow:hidden" viewBox="0 0 100 100" id="symbol-defs" xmlns="http://www.w3.org/2000/svg"><defs><symbol id="eicon-camera" viewBox="0 0 32 32"><path d="M14.935 12h10.481c-0.59-1.533-1.49-2.85-2.702-3.95s-2.604-1.872-4.176-2.317l-3.603 6.267zM11.922 14.667l5.24-9.2c-0.24-0.044-0.48-0.078-0.721-0.1s-0.48-0.033-0.72-0.033c-1.441 0-2.784 0.278-4.028 0.833s-2.347 1.3-3.308 2.233l3.537 6.267zM5.568 18.667h7.14l-5.24-9.2c-0.699 0.911-1.245 1.917-1.638 3.017s-0.59 2.272-0.59 3.517c0 0.467 0.027 0.917 0.082 1.35s0.136 0.872 0.246 1.317zM12.905 26.267l3.537-6.267h-10.415c0.59 1.533 1.49 2.85 2.702 3.95s2.604 1.872 4.176 2.317zM15.721 26.667c1.441 0 2.784-0.278 4.028-0.833s2.347-1.3 3.308-2.233l-3.537-6.267-5.24 9.2c0.24 0.044 0.475 0.078 0.704 0.1s0.475 0.033 0.737 0.033zM23.975 22.534c0.699-0.911 1.245-1.917 1.638-3.017s0.59-2.272 0.59-3.517c0-0.467-0.027-0.917-0.082-1.35s-0.136-0.872-0.246-1.317h-7.14l5.24 9.2zM15.721 29.334c-1.79 0-3.483-0.35-5.077-1.050s-2.986-1.656-4.176-2.867c-1.19-1.211-2.129-2.628-2.817-4.25s-1.032-3.344-1.032-5.167c0-1.844 0.344-3.572 1.032-5.183s1.627-3.022 2.817-4.233c1.19-1.211 2.582-2.167 4.176-2.867s3.286-1.050 5.077-1.050c1.812 0 3.51 0.35 5.093 1.050s2.97 1.656 4.16 2.867c1.19 1.211 2.129 2.622 2.817 4.233s1.032 3.339 1.032 5.183c0 1.822-0.344 3.544-1.032 5.167s-1.627 3.039-2.817 4.25c-1.19 1.211-2.576 2.167-4.16 2.867s-3.281 1.050-5.093 1.050z"/></symbol><symbol id="eicon-facebook" viewBox="0 0 19 32"><path stroke-linejoin="round" stroke-linecap="round" stroke-miterlimit="4" stroke-width="1.4545" d="M17.455 1.455h-4.364c-1.929 0-3.779 0.766-5.143 2.13s-2.13 3.214-2.13 5.143v4.364h-4.364v5.818h4.364v11.636h5.818v-11.636h4.364l1.455-5.818h-5.818v-4.364c0-0.386 0.153-0.756 0.426-1.029s0.643-0.426 1.029-0.426h4.364v-5.818z"/></symbol><symbol id="eicon-inst" viewBox="0 0 32 32"><path stroke-linejoin="round" stroke-linecap="round" stroke-miterlimit="4" stroke-width="1.3333" d="M22.667 2.667h-13.333c-3.682 0-6.667 2.985-6.667 6.667v13.333c0 3.682 2.985 6.667 6.667 6.667h13.333c3.682 0 6.667-2.985 6.667-6.667v-13.333c0-3.682-2.985-6.667-6.667-6.667z"/><path stroke-linejoin="round" stroke-linecap="round" stroke-miterlimit="4" stroke-width="1.3333" d="M21.338 15.16c0.165 1.11-0.025 2.243-0.542 3.239s-1.334 1.803-2.336 2.308c-1.002 0.504-2.137 0.68-3.245 0.502s-2.131-0.701-2.924-1.494c-0.793-0.793-1.316-1.816-1.494-2.924s-0.003-2.243 0.502-3.245c0.504-1.002 1.312-1.82 2.308-2.336s2.129-0.706 3.239-0.542c1.132 0.168 2.18 0.695 2.989 1.504s1.337 1.857 1.504 2.989z"/><path stroke-linejoin="round" stroke-linecap="round" stroke-miterlimit="4" stroke-width="1.3333" d="M23.333 8.667h0.013"/></symbol></defs></symbol></svg>