<svg width="28" height="28" viewBox="0 0 28 28" fill="none" xmlns="http://www.w3.org/2000/svg">
<mask id="mask0_24_59" style="mask-type:alpha" maskUnits="userSpaceOnUse" x="0" y="0" width="28" height="28">
<rect width="27.5114" height="28" fill="#D9D9D9"/>
</mask>
<g mask="url(#mask0_24_59)">
<path d="M13.0683 10.5002H22.2388C21.7229 9.1585 20.9348 8.00641 19.8745 7.04391C18.8142 6.08141 17.5962 5.40572 16.2206 5.01683L13.0683 10.5002ZM10.4318 12.8335L15.017 4.7835C14.8068 4.74461 14.5967 4.71544 14.3865 4.696C14.1764 4.67655 13.9662 4.66683 13.7561 4.66683C12.4951 4.66683 11.3202 4.90989 10.2312 5.396C9.14217 5.88211 8.17736 6.5335 7.33673 7.35016L10.4318 12.8335ZM4.87216 16.3335H11.1196L6.53431 8.2835C5.92295 9.08072 5.44532 9.96058 5.10143 10.9231C4.75753 11.8856 4.58559 12.9113 4.58559 14.0002C4.58559 14.4085 4.60947 14.8022 4.65723 15.1814C4.70499 15.5606 4.77664 15.9446 4.87216 16.3335ZM11.2915 22.9835L14.3865 17.5002H5.27337C5.78921 18.8418 6.5773 19.9939 7.63764 20.9564C8.69797 21.9189 9.91593 22.5946 11.2915 22.9835ZM13.7561 23.3335C15.017 23.3335 16.192 23.0904 17.281 22.6043C18.37 22.1182 19.3348 21.4668 20.1754 20.6502L17.0804 15.1668L12.4951 23.2168C12.7053 23.2557 12.9107 23.2849 13.1113 23.3043C13.3119 23.3238 13.5268 23.3335 13.7561 23.3335ZM20.9778 19.7168C21.5892 18.9196 22.0668 18.0397 22.4107 17.0772C22.7546 16.1147 22.9265 15.0891 22.9265 14.0002C22.9265 13.5918 22.9027 13.1981 22.8549 12.8189C22.8071 12.4397 22.7355 12.0557 22.64 11.6668H16.3926L20.9778 19.7168ZM13.7561 25.6668C12.1894 25.6668 10.7088 25.3606 9.31411 24.7481C7.91944 24.1356 6.70148 23.2995 5.66025 22.2397C4.61902 21.18 3.7975 19.9404 3.19569 18.521C2.59387 17.1016 2.29297 15.5946 2.29297 14.0002C2.29297 12.3863 2.59387 10.8745 3.19569 9.46475C3.7975 8.05502 4.61902 6.8203 5.66025 5.76058C6.70148 4.70086 7.91944 3.86475 9.31411 3.25225C10.7088 2.63975 12.1894 2.3335 13.7561 2.3335C15.3418 2.3335 16.8272 2.63975 18.2123 3.25225C19.5975 3.86475 20.8106 4.70086 21.8519 5.76058C22.8931 6.8203 23.7146 8.05502 24.3164 9.46475C24.9182 10.8745 25.2192 12.3863 25.2192 14.0002C25.2192 15.5946 24.9182 17.1016 24.3164 18.521C23.7146 19.9404 22.8931 21.18 21.8519 22.2397C20.8106 23.2995 19.5975 24.1356 18.2123 24.7481C16.8272 25.3606 15.3418 25.6668 13.7561 25.6668Z" fill="#1C1B1F" fill-opacity="0.85"/>
</g>
</svg>
