<?xml version="1.0" encoding="utf-8"?><svg viewBox="0 0 100 100" xmlns="http://www.w3.org/2000/svg" xmlns:xlink="http://www.w3.org/1999/xlink"><style>:root>svg{display:none}:root>svg:target{display:block}</style><svg fill="none" viewBox="0 0 28 28" id="camera" xmlns="http://www.w3.org/2000/svg">
    <mask id="aa" style="mask-type:alpha" maskUnits="userSpaceOnUse" x="0" y="0" width="28" height="28">
        <path fill="#D9D9D9" d="M0 0h27.511v28H0z"/>
    </mask>
    <g mask="url(#aa)">
        <path d="M13.068 10.5h9.17a8.935 8.935 0 0 0-2.363-3.456 9.014 9.014 0 0 0-3.654-2.027L13.068 10.5Zm-2.636 2.334 4.585-8.05a7.014 7.014 0 0 0-1.26-.117 8.548 8.548 0 0 0-3.526.729A9.922 9.922 0 0 0 7.337 7.35l3.095 5.484Zm-5.56 3.5h6.248l-4.586-8.05a9.637 9.637 0 0 0-1.433 2.64A9.077 9.077 0 0 0 4.586 14a9.45 9.45 0 0 0 .286 2.334Zm6.42 6.65 3.095-5.484H5.272a8.934 8.934 0 0 0 2.365 3.456 9.015 9.015 0 0 0 3.653 2.027Zm2.464.35c1.261 0 2.436-.244 3.525-.73a9.923 9.923 0 0 0 2.894-1.954l-3.095-5.483-4.585 8.05a6.68 6.68 0 0 0 1.261.117Zm7.222-3.617a9.636 9.636 0 0 0 1.433-2.64A9.076 9.076 0 0 0 22.926 14a9.442 9.442 0 0 0-.286-2.333h-6.247l4.585 8.05Zm-7.222 5.95c-1.567 0-3.047-.306-4.442-.919A11.617 11.617 0 0 1 5.66 22.24a11.847 11.847 0 0 1-2.464-3.719 11.461 11.461 0 0 1-.903-4.52c0-1.615.3-3.127.903-4.536A11.893 11.893 0 0 1 5.66 5.76a11.618 11.618 0 0 1 3.654-2.509 10.925 10.925 0 0 1 4.442-.918c1.586 0 3.071.306 4.456.918a11.665 11.665 0 0 1 3.64 2.509 11.893 11.893 0 0 1 2.464 3.704c.602 1.41.903 2.921.903 4.535 0 1.595-.3 3.102-.903 4.521a11.847 11.847 0 0 1-2.464 3.719 11.664 11.664 0 0 1-3.64 2.508c-1.385.613-2.87.919-4.456.919Z" fill="#1C1B1F" fill-opacity=".85"/>
    </g>
</svg><svg fill="none" viewBox="0 0 13 22" id="facebook" xmlns="http://www.w3.org/2000/svg">
    <path d="M12 1H9a5 5 0 0 0-5 5v3H1v4h3v8h4v-8h3l1-4H8V6a1 1 0 0 1 1-1h3V1Z" stroke="#100F0F" stroke-linecap="round" stroke-linejoin="round"/>
</svg><svg fill="none" viewBox="0 0 24 24" id="inst" xmlns="http://www.w3.org/2000/svg">
    <path d="M17 2H7a5 5 0 0 0-5 5v10a5 5 0 0 0 5 5h10a5 5 0 0 0 5-5V7a5 5 0 0 0-5-5Z" stroke="#0E0D0D" stroke-linecap="round" stroke-linejoin="round"/>
    <path d="M16.004 11.37a4 4 0 1 1-7.914 1.174 4 4 0 0 1 7.914-1.174ZM17.5 6.5h.01" stroke="#0E0D0D" stroke-linecap="round" stroke-linejoin="round"/>
</svg><svg aria-hidden="true" style="position:absolute;width:0;height:0;overflow:hidden" viewBox="0 0 100 100" id="symbol-defs" xmlns="http://www.w3.org/2000/svg">
    <defs>
        <symbol id="dicon-camera" viewBox="0 0 32 32">
            <path d="M14.935 12h10.481c-.59-1.533-1.49-2.85-2.702-3.95s-2.604-1.872-4.176-2.317L14.935 12zm-3.013 2.667 5.24-9.2a8.058 8.058 0 0 0-1.441-.133c-1.441 0-2.784.278-4.028.833S9.346 7.467 8.385 8.4l3.537 6.267zm-6.354 4h7.14l-5.24-9.2c-.699.911-1.245 1.917-1.638 3.017s-.59 2.272-.59 3.517a10.712 10.712 0 0 0 .328 2.667zm7.337 7.6L16.442 20H6.027c.59 1.533 1.49 2.85 2.702 3.95s2.604 1.872 4.176 2.317zm2.816.4c1.441 0 2.784-.278 4.028-.833s2.347-1.3 3.308-2.233l-3.537-6.267-5.24 9.2a7.731 7.731 0 0 0 1.441.133zm8.254-4.133c.699-.911 1.245-1.917 1.638-3.017s.59-2.272.59-3.517a10.712 10.712 0 0 0-.328-2.667h-7.14l5.24 9.2zm-8.254 6.8c-1.79 0-3.483-.35-5.077-1.05s-2.986-1.656-4.176-2.867-2.129-2.628-2.817-4.25S2.619 17.823 2.619 16c0-1.844.344-3.572 1.032-5.183s1.627-3.022 2.817-4.233c1.19-1.211 2.582-2.167 4.176-2.867s3.286-1.05 5.077-1.05c1.812 0 3.51.35 5.093 1.05s2.97 1.656 4.16 2.867 2.129 2.622 2.817 4.233 1.032 3.339 1.032 5.183c0 1.822-.344 3.544-1.032 5.167s-1.627 3.039-2.817 4.25c-1.19 1.211-2.576 2.167-4.16 2.867s-3.281 1.05-5.093 1.05z"/>
        </symbol>
        <symbol id="dicon-facebook" viewBox="0 0 19 32">
            <path stroke-linejoin="round" stroke-linecap="round" stroke-width="1.454" d="M17.455 1.455h-4.364a7.273 7.273 0 0 0-7.273 7.273v4.364H1.454v5.818h4.364v11.636h5.818V18.91H16l1.455-5.818h-5.818V8.728a1.455 1.455 0 0 1 1.455-1.455h4.364V1.455z"/>
        </symbol>
        <symbol id="dicon-inst" viewBox="0 0 32 32">
            <path stroke-linejoin="round" stroke-linecap="round" stroke-width="1.333" d="M22.667 2.667H9.334a6.667 6.667 0 0 0-6.667 6.667v13.333a6.667 6.667 0 0 0 6.667 6.667h13.333a6.667 6.667 0 0 0 6.667-6.667V9.334a6.667 6.667 0 0 0-6.667-6.667z"/>
            <path stroke-linejoin="round" stroke-linecap="round" stroke-width="1.333" d="M21.338 15.16a5.338 5.338 0 0 1-6.123 6.049 5.33 5.33 0 0 1-3.916-7.663c.504-1.002 1.312-1.82 2.308-2.336s2.129-.706 3.239-.542a5.334 5.334 0 0 1 4.493 4.493zM23.333 8.667h.013"/>
        </symbol>
    </defs>
</svg></svg>