<svg aria-hidden="true" style="position: absolute; width: 0; height: 0; overflow: hidden;" version="1.1" xmlns="http://www.w3.org/2000/svg" xmlns:xlink="http://www.w3.org/1999/xlink">
<defs>
<symbol id="icon-camera" viewBox="0 0 32 32">
<path d="M14.935 12h10.481c-0.59-1.533-1.49-2.85-2.702-3.95s-2.604-1.872-4.176-2.317l-3.603 6.267zM11.922 14.667l5.24-9.2c-0.24-0.044-0.48-0.078-0.721-0.1s-0.48-0.033-0.72-0.033c-1.441 0-2.784 0.278-4.028 0.833s-2.347 1.3-3.308 2.233l3.537 6.267zM5.568 18.667h7.14l-5.24-9.2c-0.699 0.911-1.245 1.917-1.638 3.017s-0.59 2.272-0.59 3.517c0 0.467 0.027 0.917 0.082 1.35s0.136 0.872 0.246 1.317zM12.905 26.267l3.537-6.267h-10.415c0.59 1.533 1.49 2.85 2.702 3.95s2.604 1.872 4.176 2.317zM15.721 26.667c1.441 0 2.784-0.278 4.028-0.833s2.347-1.3 3.308-2.233l-3.537-6.267-5.24 9.2c0.24 0.044 0.475 0.078 0.704 0.1s0.475 0.033 0.737 0.033zM23.975 22.534c0.699-0.911 1.245-1.917 1.638-3.017s0.59-2.272 0.59-3.517c0-0.467-0.027-0.917-0.082-1.35s-0.136-0.872-0.246-1.317h-7.14l5.24 9.2zM15.721 29.334c-1.79 0-3.483-0.35-5.077-1.050s-2.986-1.656-4.176-2.867c-1.19-1.211-2.129-2.628-2.817-4.25s-1.032-3.344-1.032-5.167c0-1.844 0.344-3.572 1.032-5.183s1.627-3.022 2.817-4.233c1.19-1.211 2.582-2.167 4.176-2.867s3.286-1.050 5.077-1.050c1.812 0 3.51 0.35 5.093 1.050s2.97 1.656 4.16 2.867c1.19 1.211 2.129 2.622 2.817 4.233s1.032 3.339 1.032 5.183c0 1.822-0.344 3.544-1.032 5.167s-1.627 3.039-2.817 4.25c-1.19 1.211-2.576 2.167-4.16 2.867s-3.281 1.050-5.093 1.050z"></path>
</symbol>
<symbol id="icon-facebook" viewBox="0 0 19 32">
<path stroke-linejoin="round" stroke-linecap="round" stroke-miterlimit="4" stroke-width="1.4545" d="M17.455 1.455h-4.364c-1.929 0-3.779 0.766-5.143 2.13s-2.13 3.214-2.13 5.143v4.364h-4.364v5.818h4.364v11.636h5.818v-11.636h4.364l1.455-5.818h-5.818v-4.364c0-0.386 0.153-0.756 0.426-1.029s0.643-0.426 1.029-0.426h4.364v-5.818z"></path>
</symbol>
<symbol id="icon-inst" viewBox="0 0 32 32">
<path stroke-linejoin="round" stroke-linecap="round" stroke-miterlimit="4" stroke-width="1.3333" d="M22.667 2.667h-13.333c-3.682 0-6.667 2.985-6.667 6.667v13.333c0 3.682 2.985 6.667 6.667 6.667h13.333c3.682 0 6.667-2.985 6.667-6.667v-13.333c0-3.682-2.985-6.667-6.667-6.667z"></path>
<path stroke-linejoin="round" stroke-linecap="round" stroke-miterlimit="4" stroke-width="1.3333" d="M21.338 15.16c0.165 1.11-0.025 2.243-0.542 3.239s-1.334 1.803-2.336 2.308c-1.002 0.504-2.137 0.68-3.245 0.502s-2.131-0.701-2.924-1.494c-0.793-0.793-1.316-1.816-1.494-2.924s-0.003-2.243 0.502-3.245c0.504-1.002 1.312-1.82 2.308-2.336s2.129-0.706 3.239-0.542c1.132 0.168 2.18 0.695 2.989 1.504s1.337 1.857 1.504 2.989z"></path>
<path stroke-linejoin="round" stroke-linecap="round" stroke-miterlimit="4" stroke-width="1.3333" d="M23.333 8.667h0.013"></path>
</symbol>
</defs>
</svg>
